<svg xmlns="http://www.w3.org/2000/svg" xmlns:xlink="http://www.w3.org/1999/xlink" width="944" zoomAndPan="magnify" viewBox="0 0 708.75 567.000005" height="755" preserveAspectRatio="xMidYMid meet" version="1.0"><defs><g/><clipPath id="71099aa12a"><path d="M 0.5 0 L 708 0 L 708 566 L 0.5 566 Z M 0.5 0 " clip-rule="nonzero"/></clipPath><clipPath id="598d36fed0"><path d="M 254 86 L 396 86 L 396 203 L 254 203 Z M 254 86 " clip-rule="nonzero"/></clipPath><clipPath id="75eb12e518"><path d="M 271.585938 80.121094 L 397.484375 103.339844 L 378.203125 207.890625 L 252.300781 184.671875 Z M 271.585938 80.121094 " clip-rule="nonzero"/></clipPath><clipPath id="939f2721b1"><path d="M 144.839844 56.746094 L 397.378906 103.320312 L 341.84375 404.453125 L 89.304688 357.878906 Z M 144.839844 56.746094 " clip-rule="nonzero"/></clipPath><clipPath id="53a4c0f3e6"><path d="M 144.839844 56.746094 L 397.378906 103.320312 L 341.84375 404.453125 L 89.304688 357.878906 Z M 144.839844 56.746094 " clip-rule="nonzero"/></clipPath><clipPath id="c1e2dd70f6"><path d="M 394.96875 106.199219 C 393.308594 102.589844 374.671875 108.011719 372.4375 108.664062 C 360.90625 112.019531 351.894531 116.691406 345.660156 120.480469 C 341.1875 117.039062 336.71875 113.597656 332.246094 110.15625 C 333.511719 109.507812 334.777344 108.859375 336.042969 108.207031 C 335.566406 107.273438 334.757812 105.957031 333.429688 104.671875 C 331.859375 103.148438 330.238281 102.328125 329.195312 101.902344 C 328.027344 102.609375 326.863281 103.316406 325.699219 104.023438 C 317.789062 98.25 309.878906 92.472656 301.96875 86.699219 C 301.925781 86.691406 301.878906 86.679688 301.835938 86.671875 C 296.449219 87.457031 291.273438 89.246094 286.019531 90.671875 C 295.691406 99.230469 305.363281 107.789062 315.035156 116.347656 L 312.800781 117.804688 C 313.292969 118.269531 313.78125 118.734375 314.269531 119.199219 C 315.285156 118.921875 316.300781 118.644531 317.320312 118.367188 C 320.777344 121.429688 324.238281 124.492188 327.699219 127.550781 L 278.90625 155.628906 C 274.621094 152.589844 270.335938 149.550781 266.054688 146.515625 C 262.128906 147.203125 258.207031 147.890625 254.285156 148.578125 L 269.941406 162.871094 C 268.542969 163.960938 267.140625 165.046875 265.742188 166.132812 C 265.945312 166.554688 266.144531 166.972656 266.34375 167.394531 C 268.003906 167.125 269.664062 166.855469 271.324219 166.585938 C 270.941406 173.199219 270.554688 179.808594 270.171875 186.421875 C 273.421875 184.226562 276.675781 182.03125 279.925781 179.839844 C 280.824219 174.417969 281.71875 168.996094 282.617188 163.574219 L 335.257812 144.113281 L 335.28125 156.546875 L 333.082031 158.015625 L 333.167969 159.269531 C 333.660156 159.410156 334.152344 159.550781 334.644531 159.691406 C 334.082031 173.929688 333.519531 188.167969 332.957031 202.40625 C 334.699219 201.371094 336.089844 200.472656 337.023438 199.828125 C 340.058594 197.726562 343.011719 195.46875 346.152344 193.527344 C 346.597656 193.253906 347.046875 192.988281 347.496094 192.726562 C 348.910156 182.074219 350.320312 171.417969 351.734375 160.761719 C 353.023438 160.308594 354.316406 159.855469 355.605469 159.402344 C 356.007812 158.371094 356.515625 156.679688 356.5 154.554688 C 356.488281 152.847656 356.144531 151.449219 355.824219 150.5 C 354.449219 150.71875 353.070312 150.941406 351.691406 151.164062 C 352.09375 145.773438 352.496094 140.382812 352.898438 134.992188 C 360.484375 132.171875 370.675781 127.554688 381.421875 119.828125 C 385.925781 116.585938 396.308594 109.121094 394.96875 106.199219 Z M 394.96875 106.199219 " clip-rule="nonzero"/></clipPath><linearGradient x1="914.563192" gradientTransform="matrix(0.118218, 0.0218024, -0.0218365, 0.118403, 147.729382, 58.250556)" y1="449.21799" x2="2251.031797" gradientUnits="userSpaceOnUse" y2="449.21799" id="283053e6d8"><stop stop-opacity="1" stop-color="rgb(55.299377%, 41.19873%, 7.798767%)" offset="0"/><stop stop-opacity="1" stop-color="rgb(55.299377%, 41.19873%, 7.798767%)" offset="0.0625"/><stop stop-opacity="1" stop-color="rgb(55.430603%, 41.317749%, 7.833862%)" offset="0.078125"/><stop stop-opacity="1" stop-color="rgb(55.685425%, 41.551208%, 7.902527%)" offset="0.0859375"/><stop stop-opacity="1" stop-color="rgb(55.934143%, 41.777039%, 7.96814%)" offset="0.09375"/><stop stop-opacity="1" stop-color="rgb(56.182861%, 42.004395%, 8.035278%)" offset="0.101562"/><stop stop-opacity="1" stop-color="rgb(56.43158%, 42.230225%, 8.100891%)" offset="0.109375"/><stop stop-opacity="1" stop-color="rgb(56.680298%, 42.457581%, 8.166504%)" offset="0.117188"/><stop stop-opacity="1" stop-color="rgb(56.929016%, 42.683411%, 8.233643%)" offset="0.125"/><stop stop-opacity="1" stop-color="rgb(57.177734%, 42.910767%, 8.299255%)" offset="0.132812"/><stop stop-opacity="1" stop-color="rgb(57.426453%, 43.136597%, 8.366394%)" offset="0.140625"/><stop stop-opacity="1" stop-color="rgb(57.675171%, 43.363953%, 8.432007%)" offset="0.148437"/><stop stop-opacity="1" stop-color="rgb(57.923889%, 43.589783%, 8.499146%)" offset="0.15625"/><stop stop-opacity="1" stop-color="rgb(58.171082%, 43.817139%, 8.564758%)" offset="0.164062"/><stop stop-opacity="1" stop-color="rgb(58.4198%, 44.042969%, 8.631897%)" offset="0.171875"/><stop stop-opacity="1" stop-color="rgb(58.668518%, 44.270325%, 8.69751%)" offset="0.179688"/><stop stop-opacity="1" stop-color="rgb(58.917236%, 44.496155%, 8.764648%)" offset="0.1875"/><stop stop-opacity="1" stop-color="rgb(59.165955%, 44.723511%, 8.830261%)" offset="0.195312"/><stop stop-opacity="1" stop-color="rgb(59.414673%, 44.949341%, 8.895874%)" offset="0.203125"/><stop stop-opacity="1" stop-color="rgb(59.663391%, 45.176697%, 8.963013%)" offset="0.210937"/><stop stop-opacity="1" stop-color="rgb(59.912109%, 45.402527%, 9.028625%)" offset="0.21875"/><stop stop-opacity="1" stop-color="rgb(60.160828%, 45.629883%, 9.095764%)" offset="0.226562"/><stop stop-opacity="1" stop-color="rgb(60.409546%, 45.855713%, 9.161377%)" offset="0.234375"/><stop stop-opacity="1" stop-color="rgb(60.658264%, 46.083069%, 9.228516%)" offset="0.242188"/><stop stop-opacity="1" stop-color="rgb(60.906982%, 46.308899%, 9.294128%)" offset="0.25"/><stop stop-opacity="1" stop-color="rgb(61.155701%, 46.536255%, 9.361267%)" offset="0.257812"/><stop stop-opacity="1" stop-color="rgb(61.404419%, 46.762085%, 9.42688%)" offset="0.265625"/><stop stop-opacity="1" stop-color="rgb(61.653137%, 46.987915%, 9.494019%)" offset="0.273438"/><stop stop-opacity="1" stop-color="rgb(61.901855%, 47.215271%, 9.559631%)" offset="0.28125"/><stop stop-opacity="1" stop-color="rgb(62.150574%, 47.441101%, 9.62677%)" offset="0.289062"/><stop stop-opacity="1" stop-color="rgb(62.399292%, 47.668457%, 9.692383%)" offset="0.296875"/><stop stop-opacity="1" stop-color="rgb(62.64801%, 47.894287%, 9.757996%)" offset="0.304688"/><stop stop-opacity="1" stop-color="rgb(62.896729%, 48.121643%, 9.825134%)" offset="0.3125"/><stop stop-opacity="1" stop-color="rgb(63.145447%, 48.347473%, 9.890747%)" offset="0.320312"/><stop stop-opacity="1" stop-color="rgb(63.394165%, 48.574829%, 9.957886%)" offset="0.328125"/><stop stop-opacity="1" stop-color="rgb(63.642883%, 48.800659%, 10.023499%)" offset="0.335938"/><stop stop-opacity="1" stop-color="rgb(63.891602%, 49.028015%, 10.090637%)" offset="0.34375"/><stop stop-opacity="1" stop-color="rgb(64.14032%, 49.253845%, 10.15625%)" offset="0.351563"/><stop stop-opacity="1" stop-color="rgb(64.453125%, 49.54071%, 10.255432%)" offset="0.359375"/><stop stop-opacity="1" stop-color="rgb(64.840698%, 49.897766%, 10.394287%)" offset="0.363281"/><stop stop-opacity="1" stop-color="rgb(65.039062%, 50.080872%, 10.466003%)" offset="0.367188"/><stop stop-opacity="1" stop-color="rgb(65.237427%, 50.263977%, 10.536194%)" offset="0.371094"/><stop stop-opacity="1" stop-color="rgb(65.437317%, 50.447083%, 10.60791%)" offset="0.375"/><stop stop-opacity="1" stop-color="rgb(65.635681%, 50.630188%, 10.679626%)" offset="0.378906"/><stop stop-opacity="1" stop-color="rgb(65.834045%, 50.814819%, 10.751343%)" offset="0.382812"/><stop stop-opacity="1" stop-color="rgb(66.03241%, 50.997925%, 10.823059%)" offset="0.386719"/><stop stop-opacity="1" stop-color="rgb(66.2323%, 51.18103%, 10.894775%)" offset="0.390625"/><stop stop-opacity="1" stop-color="rgb(66.430664%, 51.364136%, 10.964966%)" offset="0.394531"/><stop stop-opacity="1" stop-color="rgb(66.629028%, 51.547241%, 11.036682%)" offset="0.398437"/><stop stop-opacity="1" stop-color="rgb(66.827393%, 51.730347%, 11.108398%)" offset="0.402344"/><stop stop-opacity="1" stop-color="rgb(67.027283%, 51.913452%, 11.180115%)" offset="0.40625"/><stop stop-opacity="1" stop-color="rgb(67.225647%, 52.096558%, 11.250305%)" offset="0.410156"/><stop stop-opacity="1" stop-color="rgb(67.424011%, 52.279663%, 11.322021%)" offset="0.414062"/><stop stop-opacity="1" stop-color="rgb(67.622375%, 52.462769%, 11.393738%)" offset="0.417969"/><stop stop-opacity="1" stop-color="rgb(67.822266%, 52.645874%, 11.465454%)" offset="0.421875"/><stop stop-opacity="1" stop-color="rgb(68.02063%, 52.828979%, 11.53717%)" offset="0.425781"/><stop stop-opacity="1" stop-color="rgb(68.218994%, 53.012085%, 11.608887%)" offset="0.429688"/><stop stop-opacity="1" stop-color="rgb(68.417358%, 53.19519%, 11.679077%)" offset="0.433594"/><stop stop-opacity="1" stop-color="rgb(68.617249%, 53.378296%, 11.750793%)" offset="0.4375"/><stop stop-opacity="1" stop-color="rgb(68.815613%, 53.561401%, 11.82251%)" offset="0.441406"/><stop stop-opacity="1" stop-color="rgb(69.015503%, 53.744507%, 11.894226%)" offset="0.445312"/><stop stop-opacity="1" stop-color="rgb(69.213867%, 53.927612%, 11.965942%)" offset="0.449219"/><stop stop-opacity="1" stop-color="rgb(69.412231%, 54.110718%, 12.037659%)" offset="0.453125"/><stop stop-opacity="1" stop-color="rgb(69.610596%, 54.293823%, 12.107849%)" offset="0.457031"/><stop stop-opacity="1" stop-color="rgb(69.810486%, 54.476929%, 12.179565%)" offset="0.460938"/><stop stop-opacity="1" stop-color="rgb(70.00885%, 54.660034%, 12.251282%)" offset="0.464844"/><stop stop-opacity="1" stop-color="rgb(70.207214%, 54.844666%, 12.322998%)" offset="0.46875"/><stop stop-opacity="1" stop-color="rgb(70.405579%, 55.027771%, 12.394714%)" offset="0.472656"/><stop stop-opacity="1" stop-color="rgb(70.605469%, 55.210876%, 12.466431%)" offset="0.476562"/><stop stop-opacity="1" stop-color="rgb(70.803833%, 55.393982%, 12.536621%)" offset="0.480469"/><stop stop-opacity="1" stop-color="rgb(71.002197%, 55.577087%, 12.608337%)" offset="0.484375"/><stop stop-opacity="1" stop-color="rgb(71.200562%, 55.760193%, 12.680054%)" offset="0.488281"/><stop stop-opacity="1" stop-color="rgb(71.400452%, 55.943298%, 12.75177%)" offset="0.492188"/><stop stop-opacity="1" stop-color="rgb(71.598816%, 56.126404%, 12.823486%)" offset="0.496094"/><stop stop-opacity="1" stop-color="rgb(71.79718%, 56.309509%, 12.895203%)" offset="0.5"/><stop stop-opacity="1" stop-color="rgb(71.995544%, 56.492615%, 12.965393%)" offset="0.503906"/><stop stop-opacity="1" stop-color="rgb(72.195435%, 56.67572%, 13.037109%)" offset="0.507812"/><stop stop-opacity="1" stop-color="rgb(72.393799%, 56.858826%, 13.108826%)" offset="0.511719"/><stop stop-opacity="1" stop-color="rgb(72.592163%, 57.041931%, 13.180542%)" offset="0.515625"/><stop stop-opacity="1" stop-color="rgb(72.790527%, 57.225037%, 13.252258%)" offset="0.519531"/><stop stop-opacity="1" stop-color="rgb(72.990417%, 57.408142%, 13.323975%)" offset="0.523438"/><stop stop-opacity="1" stop-color="rgb(73.188782%, 57.591248%, 13.394165%)" offset="0.527344"/><stop stop-opacity="1" stop-color="rgb(73.387146%, 57.774353%, 13.465881%)" offset="0.53125"/><stop stop-opacity="1" stop-color="rgb(73.58551%, 57.957458%, 13.537598%)" offset="0.535156"/><stop stop-opacity="1" stop-color="rgb(73.7854%, 58.140564%, 13.609314%)" offset="0.539062"/><stop stop-opacity="1" stop-color="rgb(73.983765%, 58.323669%, 13.68103%)" offset="0.542969"/><stop stop-opacity="1" stop-color="rgb(74.182129%, 58.506775%, 13.752747%)" offset="0.546875"/><stop stop-opacity="1" stop-color="rgb(74.380493%, 58.68988%, 13.822937%)" offset="0.550781"/><stop stop-opacity="1" stop-color="rgb(74.580383%, 58.874512%, 13.894653%)" offset="0.554688"/><stop stop-opacity="1" stop-color="rgb(74.778748%, 59.057617%, 13.96637%)" offset="0.558594"/><stop stop-opacity="1" stop-color="rgb(74.977112%, 59.240723%, 14.038086%)" offset="0.5625"/><stop stop-opacity="1" stop-color="rgb(75.175476%, 59.423828%, 14.109802%)" offset="0.566406"/><stop stop-opacity="1" stop-color="rgb(75.375366%, 59.606934%, 14.181519%)" offset="0.570312"/><stop stop-opacity="1" stop-color="rgb(75.57373%, 59.790039%, 14.251709%)" offset="0.574219"/><stop stop-opacity="1" stop-color="rgb(75.772095%, 59.973145%, 14.323425%)" offset="0.578125"/><stop stop-opacity="1" stop-color="rgb(75.970459%, 60.15625%, 14.395142%)" offset="0.582031"/><stop stop-opacity="1" stop-color="rgb(76.170349%, 60.339355%, 14.466858%)" offset="0.585938"/><stop stop-opacity="1" stop-color="rgb(76.368713%, 60.522461%, 14.537048%)" offset="0.589844"/><stop stop-opacity="1" stop-color="rgb(76.568604%, 60.705566%, 14.608765%)" offset="0.59375"/><stop stop-opacity="1" stop-color="rgb(76.766968%, 60.888672%, 14.680481%)" offset="0.597656"/><stop stop-opacity="1" stop-color="rgb(76.965332%, 61.071777%, 14.752197%)" offset="0.601562"/><stop stop-opacity="1" stop-color="rgb(77.163696%, 61.254883%, 14.823914%)" offset="0.605469"/><stop stop-opacity="1" stop-color="rgb(77.363586%, 61.437988%, 14.89563%)" offset="0.609375"/><stop stop-opacity="1" stop-color="rgb(77.561951%, 61.621094%, 14.96582%)" offset="0.613281"/><stop stop-opacity="1" stop-color="rgb(77.760315%, 61.804199%, 15.037537%)" offset="0.617188"/><stop stop-opacity="1" stop-color="rgb(77.958679%, 61.987305%, 15.109253%)" offset="0.621094"/><stop stop-opacity="1" stop-color="rgb(78.158569%, 62.17041%, 15.180969%)" offset="0.625"/><stop stop-opacity="1" stop-color="rgb(78.356934%, 62.353516%, 15.252686%)" offset="0.628906"/><stop stop-opacity="1" stop-color="rgb(78.555298%, 62.536621%, 15.324402%)" offset="0.632812"/><stop stop-opacity="1" stop-color="rgb(78.753662%, 62.719727%, 15.394592%)" offset="0.636719"/><stop stop-opacity="1" stop-color="rgb(78.953552%, 62.904358%, 15.466309%)" offset="0.640625"/><stop stop-opacity="1" stop-color="rgb(79.151917%, 63.087463%, 15.538025%)" offset="0.644531"/><stop stop-opacity="1" stop-color="rgb(79.350281%, 63.270569%, 15.609741%)" offset="0.648438"/><stop stop-opacity="1" stop-color="rgb(79.556274%, 63.471985%, 15.67688%)" offset="0.652344"/><stop stop-opacity="1" stop-color="rgb(79.762268%, 63.673401%, 15.744019%)" offset="0.65625"/><stop stop-opacity="1" stop-color="rgb(79.978943%, 63.90686%, 15.802002%)" offset="0.660156"/><stop stop-opacity="1" stop-color="rgb(80.197144%, 64.14032%, 15.861511%)" offset="0.664063"/><stop stop-opacity="1" stop-color="rgb(80.415344%, 64.372253%, 15.921021%)" offset="0.667969"/><stop stop-opacity="1" stop-color="rgb(80.633545%, 64.605713%, 15.98053%)" offset="0.671875"/><stop stop-opacity="1" stop-color="rgb(80.85022%, 64.837646%, 16.038513%)" offset="0.675781"/><stop stop-opacity="1" stop-color="rgb(81.06842%, 65.071106%, 16.098022%)" offset="0.679688"/><stop stop-opacity="1" stop-color="rgb(81.286621%, 65.30304%, 16.156006%)" offset="0.683594"/><stop stop-opacity="1" stop-color="rgb(81.504822%, 65.536499%, 16.215515%)" offset="0.6875"/><stop stop-opacity="1" stop-color="rgb(81.721497%, 65.769958%, 16.275024%)" offset="0.691406"/><stop stop-opacity="1" stop-color="rgb(81.939697%, 66.003418%, 16.334534%)" offset="0.695313"/><stop stop-opacity="1" stop-color="rgb(82.156372%, 66.235352%, 16.392517%)" offset="0.699219"/><stop stop-opacity="1" stop-color="rgb(82.374573%, 66.468811%, 16.452026%)" offset="0.703125"/><stop stop-opacity="1" stop-color="rgb(82.592773%, 66.700745%, 16.511536%)" offset="0.707031"/><stop stop-opacity="1" stop-color="rgb(82.810974%, 66.934204%, 16.571045%)" offset="0.710938"/><stop stop-opacity="1" stop-color="rgb(83.027649%, 67.167664%, 16.629028%)" offset="0.714844"/><stop stop-opacity="1" stop-color="rgb(83.24585%, 67.401123%, 16.688538%)" offset="0.71875"/><stop stop-opacity="1" stop-color="rgb(83.46405%, 67.633057%, 16.748047%)" offset="0.722656"/><stop stop-opacity="1" stop-color="rgb(83.682251%, 67.866516%, 16.807556%)" offset="0.726563"/><stop stop-opacity="1" stop-color="rgb(83.898926%, 68.09845%, 16.86554%)" offset="0.730469"/><stop stop-opacity="1" stop-color="rgb(84.117126%, 68.331909%, 16.925049%)" offset="0.734375"/><stop stop-opacity="1" stop-color="rgb(84.333801%, 68.565369%, 16.983032%)" offset="0.738281"/><stop stop-opacity="1" stop-color="rgb(84.552002%, 68.798828%, 17.042542%)" offset="0.742188"/><stop stop-opacity="1" stop-color="rgb(84.770203%, 69.030762%, 17.102051%)" offset="0.746094"/><stop stop-opacity="1" stop-color="rgb(84.988403%, 69.264221%, 17.16156%)" offset="0.75"/><stop stop-opacity="1" stop-color="rgb(85.205078%, 69.496155%, 17.219543%)" offset="0.753906"/><stop stop-opacity="1" stop-color="rgb(85.423279%, 69.729614%, 17.279053%)" offset="0.757812"/><stop stop-opacity="1" stop-color="rgb(85.641479%, 69.963074%, 17.338562%)" offset="0.761719"/><stop stop-opacity="1" stop-color="rgb(85.85968%, 70.196533%, 17.398071%)" offset="0.765625"/><stop stop-opacity="1" stop-color="rgb(86.076355%, 70.428467%, 17.456055%)" offset="0.769531"/><stop stop-opacity="1" stop-color="rgb(86.294556%, 70.661926%, 17.515564%)" offset="0.773437"/><stop stop-opacity="1" stop-color="rgb(86.51123%, 70.89386%, 17.575073%)" offset="0.777344"/><stop stop-opacity="1" stop-color="rgb(86.729431%, 71.127319%, 17.634583%)" offset="0.78125"/><stop stop-opacity="1" stop-color="rgb(86.947632%, 71.360779%, 17.692566%)" offset="0.785156"/><stop stop-opacity="1" stop-color="rgb(87.165833%, 71.594238%, 17.752075%)" offset="0.789062"/><stop stop-opacity="1" stop-color="rgb(87.382507%, 71.826172%, 17.810059%)" offset="0.792969"/><stop stop-opacity="1" stop-color="rgb(87.600708%, 72.059631%, 17.869568%)" offset="0.796875"/><stop stop-opacity="1" stop-color="rgb(87.818909%, 72.291565%, 17.929077%)" offset="0.800781"/><stop stop-opacity="1" stop-color="rgb(88.037109%, 72.525024%, 17.988586%)" offset="0.804687"/><stop stop-opacity="1" stop-color="rgb(88.253784%, 72.756958%, 18.04657%)" offset="0.808594"/><stop stop-opacity="1" stop-color="rgb(88.471985%, 72.990417%, 18.106079%)" offset="0.8125"/><stop stop-opacity="1" stop-color="rgb(88.68866%, 73.223877%, 18.165588%)" offset="0.816406"/><stop stop-opacity="1" stop-color="rgb(88.90686%, 73.457336%, 18.225098%)" offset="0.820312"/><stop stop-opacity="1" stop-color="rgb(89.125061%, 73.68927%, 18.283081%)" offset="0.824219"/><stop stop-opacity="1" stop-color="rgb(89.343262%, 73.922729%, 18.34259%)" offset="0.828125"/><stop stop-opacity="1" stop-color="rgb(89.559937%, 74.154663%, 18.4021%)" offset="0.832031"/><stop stop-opacity="1" stop-color="rgb(89.778137%, 74.388123%, 18.461609%)" offset="0.835937"/><stop stop-opacity="1" stop-color="rgb(89.996338%, 74.621582%, 18.519592%)" offset="0.839844"/><stop stop-opacity="1" stop-color="rgb(90.214539%, 74.855042%, 18.579102%)" offset="0.84375"/><stop stop-opacity="1" stop-color="rgb(90.431213%, 75.086975%, 18.638611%)" offset="0.847656"/><stop stop-opacity="1" stop-color="rgb(90.649414%, 75.320435%, 18.69812%)" offset="0.851562"/><stop stop-opacity="1" stop-color="rgb(90.866089%, 75.552368%, 18.756104%)" offset="0.855469"/><stop stop-opacity="1" stop-color="rgb(91.08429%, 75.785828%, 18.815613%)" offset="0.859375"/><stop stop-opacity="1" stop-color="rgb(91.30249%, 76.019287%, 18.873596%)" offset="0.863281"/><stop stop-opacity="1" stop-color="rgb(91.520691%, 76.252747%, 18.933105%)" offset="0.867187"/><stop stop-opacity="1" stop-color="rgb(91.737366%, 76.48468%, 18.992615%)" offset="0.871094"/><stop stop-opacity="1" stop-color="rgb(91.955566%, 76.71814%, 19.052124%)" offset="0.875"/><stop stop-opacity="1" stop-color="rgb(92.173767%, 76.950073%, 19.110107%)" offset="0.878906"/><stop stop-opacity="1" stop-color="rgb(92.391968%, 77.183533%, 19.169617%)" offset="0.882812"/><stop stop-opacity="1" stop-color="rgb(92.445374%, 77.241516%, 19.18335%)" offset="0.890625"/><stop stop-opacity="1" stop-color="rgb(92.498779%, 77.2995%, 19.198608%)" offset="0.90625"/><stop stop-opacity="1" stop-color="rgb(92.498779%, 77.2995%, 19.198608%)" offset="0.9375"/><stop stop-opacity="1" stop-color="rgb(92.498779%, 77.2995%, 19.198608%)" offset="1"/></linearGradient><clipPath id="3c98edfc01"><path d="M 252 169 L 260 169 L 260 208 L 252 208 Z M 252 169 " clip-rule="nonzero"/></clipPath><clipPath id="8e26fee594"><path d="M 271.585938 80.121094 L 397.484375 103.339844 L 378.203125 207.890625 L 252.300781 184.671875 Z M 271.585938 80.121094 " clip-rule="nonzero"/></clipPath><clipPath id="a2b770beeb"><path d="M 144.839844 56.746094 L 397.378906 103.320312 L 341.84375 404.453125 L 89.304688 357.878906 Z M 144.839844 56.746094 " clip-rule="nonzero"/></clipPath><clipPath id="a09b19f908"><path d="M 144.839844 56.746094 L 397.378906 103.320312 L 341.84375 404.453125 L 89.304688 357.878906 Z M 144.839844 56.746094 " clip-rule="nonzero"/></clipPath><clipPath id="277ddadf44"><path d="M 120.9375 268.363281 C 109.585938 285.460938 98.5 308.015625 99.320312 328.972656 C 99.496094 338.402344 102.128906 348.503906 109.109375 355.238281 C 115.8125 361.878906 125.503906 364.535156 134.71875 364.191406 C 123.015625 362.804688 111.75 357.203125 107.289062 345.726562 C 105.164062 340.425781 104.710938 334.632812 104.9375 328.964844 C 105.585938 307.207031 120.125 282.941406 132.988281 265.871094 C 146.394531 248.152344 162.230469 232.332031 179.417969 218.265625 C 195.003906 205.523438 211.734375 194.308594 229.359375 184.527344 C 239.191406 179.050781 249.335938 174.078125 259.582031 169.433594 C 205.101562 184.8125 152.714844 221.242188 120.9375 268.363281 Z M 120.9375 268.363281 " clip-rule="nonzero"/></clipPath><linearGradient x1="1023.220391" gradientTransform="matrix(0.118218, 0.0218024, -0.0218365, 0.118403, 147.729382, 58.250556)" y1="1633.19897" x2="1140.806797" gradientUnits="userSpaceOnUse" y2="1633.19897" id="58cdf57457"><stop stop-opacity="1" stop-color="rgb(90.000916%, 74.62616%, 18.521118%)" offset="0"/><stop stop-opacity="1" stop-color="rgb(90.155029%, 74.790955%, 18.562317%)" offset="0.0625"/><stop stop-opacity="1" stop-color="rgb(90.463257%, 75.120544%, 18.64624%)" offset="0.125"/><stop stop-opacity="1" stop-color="rgb(90.771484%, 75.450134%, 18.730164%)" offset="0.1875"/><stop stop-opacity="1" stop-color="rgb(91.079712%, 75.779724%, 18.814087%)" offset="0.25"/><stop stop-opacity="1" stop-color="rgb(91.387939%, 76.11084%, 18.896484%)" offset="0.3125"/><stop stop-opacity="1" stop-color="rgb(91.696167%, 76.44043%, 18.980408%)" offset="0.375"/><stop stop-opacity="1" stop-color="rgb(92.004395%, 76.77002%, 19.064331%)" offset="0.4375"/><stop stop-opacity="1" stop-color="rgb(92.312622%, 77.099609%, 19.148254%)" offset="0.5"/><stop stop-opacity="1" stop-color="rgb(92.481995%, 77.281189%, 19.194031%)" offset="1"/></linearGradient><clipPath id="dfb51d3be1"><path d="M 517 256 L 524 256 L 524 476 L 517 476 Z M 517 256 " clip-rule="nonzero"/></clipPath><clipPath id="edc27a8dbf"><path d="M 57.09375 312.929688 L 225.105469 121.703125 L 523.195312 383.605469 L 355.179688 574.832031 Z M 57.09375 312.929688 " clip-rule="nonzero"/></clipPath><clipPath id="01a594f689"><path d="M 483.675781 687.730469 L 798.453125 329.460938 L 372.128906 -45.109375 L 57.351562 313.160156 Z M 483.675781 687.730469 " clip-rule="nonzero"/></clipPath><clipPath id="501792f4cc"><path d="M 483.675781 687.730469 L 798.453125 329.460938 L 372.128906 -45.109375 L 57.351562 313.160156 Z M 483.675781 687.730469 " clip-rule="nonzero"/></clipPath><clipPath id="99d01ff1ba"><path d="M 791.636719 328.042969 C 793.359375 335.207031 759.972656 348.746094 755.964844 350.371094 C 735.308594 358.746094 716.804688 362.308594 703.371094 363.960938 C 700.800781 374.117188 698.226562 384.269531 695.65625 394.421875 C 698.242188 393.914062 700.832031 393.402344 703.421875 392.894531 C 703.800781 394.800781 704.132812 397.648438 703.671875 401.046875 C 703.128906 405.074219 701.703125 408.125 700.671875 409.949219 C 698.164062 410.261719 695.652344 410.574219 693.140625 410.882812 C 688.234375 428.386719 683.324219 445.890625 678.414062 463.394531 C 678.359375 463.460938 678.304688 463.527344 678.25 463.589844 C 669.496094 468.644531 659.898438 471.996094 650.605469 475.957031 C 654.890625 452.375 659.175781 428.789062 663.464844 405.203125 L 658.535156 405.648438 C 658.714844 404.410156 658.894531 403.171875 659.074219 401.929688 C 660.875 401.164062 662.675781 400.402344 664.476562 399.636719 C 666.007812 391.199219 667.542969 382.757812 669.074219 374.320312 L 565.734375 389.566406 C 562.972656 398.914062 560.210938 408.265625 557.453125 417.617188 C 550.941406 421.128906 544.433594 424.636719 537.921875 428.148438 L 544.355469 389.328125 C 541.070312 389.355469 537.785156 389.382812 534.5 389.410156 C 534.308594 388.566406 534.117188 387.722656 533.925781 386.878906 C 536.65625 385.363281 539.386719 383.84375 542.117188 382.328125 C 533.972656 373.144531 525.828125 363.960938 517.683594 354.777344 C 524.941406 354.230469 532.199219 353.683594 539.457031 353.140625 C 546.984375 360.003906 554.511719 366.867188 562.035156 373.730469 L 661.101562 341.515625 L 646.875 323.382812 L 641.988281 323.777344 L 640.671875 321.851562 C 641.230469 321.082031 641.785156 320.3125 642.34375 319.542969 C 625.191406 299.457031 608.042969 279.371094 590.890625 259.285156 C 594.617188 258.792969 597.679688 258.5 599.78125 258.367188 C 606.617188 257.933594 613.507812 257.824219 620.316406 257.039062 C 621.277344 256.925781 622.234375 256.796875 623.191406 256.660156 C 637.46875 270.546875 651.746094 284.4375 666.027344 298.324219 C 668.429688 297.5 670.832031 296.675781 673.234375 295.847656 C 675.003906 296.890625 677.683594 298.765625 680.097656 301.878906 C 682.039062 304.382812 683.136719 306.8125 683.765625 308.5625 C 681.503906 309.824219 679.238281 311.089844 676.976562 312.351562 C 683.742188 319.738281 690.511719 327.121094 697.28125 334.507812 C 711.574219 329.886719 731.734375 324.886719 756.261719 323.78125 C 766.542969 323.316406 790.242188 322.25 791.636719 328.042969 Z M 791.636719 328.042969 " clip-rule="nonzero"/></clipPath><linearGradient x1="787.244602" gradientTransform="matrix(0.147354, -0.167713, -0.16763, -0.147281, 486.164299, 682.218878)" y1="449.21799" x2="1541.476094" gradientUnits="userSpaceOnUse" y2="449.21799" id="3b3b495a6f"><stop stop-opacity="1" stop-color="rgb(55.299377%, 41.19873%, 7.798767%)" offset="0"/><stop stop-opacity="1" stop-color="rgb(55.299377%, 41.19873%, 7.798767%)" offset="0.25"/><stop stop-opacity="1" stop-color="rgb(55.477905%, 41.360474%, 7.846069%)" offset="0.3125"/><stop stop-opacity="1" stop-color="rgb(55.796814%, 41.651917%, 7.931519%)" offset="0.328125"/><stop stop-opacity="1" stop-color="rgb(56.077576%, 41.908264%, 8.006287%)" offset="0.34375"/><stop stop-opacity="1" stop-color="rgb(56.358337%, 42.163086%, 8.081055%)" offset="0.359375"/><stop stop-opacity="1" stop-color="rgb(56.637573%, 42.419434%, 8.155823%)" offset="0.375"/><stop stop-opacity="1" stop-color="rgb(56.918335%, 42.674255%, 8.230591%)" offset="0.390625"/><stop stop-opacity="1" stop-color="rgb(57.199097%, 42.930603%, 8.305359%)" offset="0.40625"/><stop stop-opacity="1" stop-color="rgb(57.479858%, 43.185425%, 8.380127%)" offset="0.421875"/><stop stop-opacity="1" stop-color="rgb(57.76062%, 43.441772%, 8.454895%)" offset="0.4375"/><stop stop-opacity="1" stop-color="rgb(58.041382%, 43.69812%, 8.529663%)" offset="0.453125"/><stop stop-opacity="1" stop-color="rgb(58.322144%, 43.952942%, 8.604431%)" offset="0.46875"/><stop stop-opacity="1" stop-color="rgb(58.602905%, 44.20929%, 8.679199%)" offset="0.484375"/><stop stop-opacity="1" stop-color="rgb(58.883667%, 44.464111%, 8.753967%)" offset="0.5"/><stop stop-opacity="1" stop-color="rgb(59.164429%, 44.720459%, 8.828735%)" offset="0.515625"/><stop stop-opacity="1" stop-color="rgb(59.44519%, 44.976807%, 8.903503%)" offset="0.53125"/><stop stop-opacity="1" stop-color="rgb(59.725952%, 45.231628%, 8.978271%)" offset="0.546875"/><stop stop-opacity="1" stop-color="rgb(60.006714%, 45.487976%, 9.05304%)" offset="0.5625"/><stop stop-opacity="1" stop-color="rgb(60.287476%, 45.742798%, 9.129333%)" offset="0.578125"/><stop stop-opacity="1" stop-color="rgb(60.568237%, 45.999146%, 9.204102%)" offset="0.59375"/><stop stop-opacity="1" stop-color="rgb(60.848999%, 46.255493%, 9.27887%)" offset="0.609375"/><stop stop-opacity="1" stop-color="rgb(61.129761%, 46.510315%, 9.353638%)" offset="0.625"/><stop stop-opacity="1" stop-color="rgb(61.408997%, 46.766663%, 9.428406%)" offset="0.640625"/><stop stop-opacity="1" stop-color="rgb(61.689758%, 47.021484%, 9.503174%)" offset="0.65625"/><stop stop-opacity="1" stop-color="rgb(61.97052%, 47.277832%, 9.577942%)" offset="0.671875"/><stop stop-opacity="1" stop-color="rgb(62.251282%, 47.53418%, 9.65271%)" offset="0.6875"/><stop stop-opacity="1" stop-color="rgb(62.532043%, 47.789001%, 9.727478%)" offset="0.703125"/><stop stop-opacity="1" stop-color="rgb(62.812805%, 48.045349%, 9.802246%)" offset="0.71875"/><stop stop-opacity="1" stop-color="rgb(63.093567%, 48.300171%, 9.877014%)" offset="0.734375"/><stop stop-opacity="1" stop-color="rgb(63.374329%, 48.556519%, 9.951782%)" offset="0.75"/><stop stop-opacity="1" stop-color="rgb(63.65509%, 48.81134%, 10.02655%)" offset="0.765625"/><stop stop-opacity="1" stop-color="rgb(63.935852%, 49.067688%, 10.101318%)" offset="0.78125"/><stop stop-opacity="1" stop-color="rgb(64.233398%, 49.339294%, 10.185242%)" offset="0.796875"/><stop stop-opacity="1" stop-color="rgb(64.501953%, 49.586487%, 10.272217%)" offset="0.804688"/><stop stop-opacity="1" stop-color="rgb(64.726257%, 49.794006%, 10.353088%)" offset="0.8125"/><stop stop-opacity="1" stop-color="rgb(64.952087%, 50%, 10.43396%)" offset="0.820312"/><stop stop-opacity="1" stop-color="rgb(65.176392%, 50.20752%, 10.513306%)" offset="0.828125"/><stop stop-opacity="1" stop-color="rgb(65.400696%, 50.413513%, 10.594177%)" offset="0.835938"/><stop stop-opacity="1" stop-color="rgb(65.625%, 50.621033%, 10.675049%)" offset="0.84375"/><stop stop-opacity="1" stop-color="rgb(65.849304%, 50.827026%, 10.75592%)" offset="0.851563"/><stop stop-opacity="1" stop-color="rgb(66.073608%, 51.034546%, 10.836792%)" offset="0.859375"/><stop stop-opacity="1" stop-color="rgb(66.297913%, 51.24054%, 10.917664%)" offset="0.867188"/><stop stop-opacity="1" stop-color="rgb(66.522217%, 51.448059%, 10.998535%)" offset="0.875"/><stop stop-opacity="1" stop-color="rgb(66.746521%, 51.654053%, 11.077881%)" offset="0.882813"/><stop stop-opacity="1" stop-color="rgb(66.970825%, 51.861572%, 11.158752%)" offset="0.890625"/><stop stop-opacity="1" stop-color="rgb(67.195129%, 52.067566%, 11.239624%)" offset="0.898438"/><stop stop-opacity="1" stop-color="rgb(67.419434%, 52.275085%, 11.320496%)" offset="0.90625"/><stop stop-opacity="1" stop-color="rgb(67.643738%, 52.481079%, 11.401367%)" offset="0.914062"/><stop stop-opacity="1" stop-color="rgb(67.868042%, 52.688599%, 11.482239%)" offset="0.921875"/><stop stop-opacity="1" stop-color="rgb(68.092346%, 52.894592%, 11.561584%)" offset="0.929687"/><stop stop-opacity="1" stop-color="rgb(68.31665%, 53.102112%, 11.642456%)" offset="0.9375"/><stop stop-opacity="1" stop-color="rgb(68.540955%, 53.308105%, 11.723328%)" offset="0.945312"/><stop stop-opacity="1" stop-color="rgb(68.765259%, 53.515625%, 11.804199%)" offset="0.953125"/><stop stop-opacity="1" stop-color="rgb(68.989563%, 53.721619%, 11.885071%)" offset="0.960937"/><stop stop-opacity="1" stop-color="rgb(69.213867%, 53.929138%, 11.965942%)" offset="0.96875"/><stop stop-opacity="1" stop-color="rgb(69.438171%, 54.135132%, 12.046814%)" offset="0.976562"/><stop stop-opacity="1" stop-color="rgb(69.662476%, 54.342651%, 12.12616%)" offset="0.984375"/><stop stop-opacity="1" stop-color="rgb(69.88678%, 54.548645%, 12.207031%)" offset="0.992188"/><stop stop-opacity="1" stop-color="rgb(70.111084%, 54.756165%, 12.287903%)" offset="1"/></linearGradient><clipPath id="83dde21347"><path d="M 88 251 L 522 251 L 522 428 L 88 428 Z M 88 251 " clip-rule="nonzero"/></clipPath><clipPath id="4d47c9aeab"><path d="M 57.09375 312.929688 L 225.105469 121.703125 L 523.195312 383.605469 L 355.179688 574.832031 Z M 57.09375 312.929688 " clip-rule="nonzero"/></clipPath><clipPath id="b06ffe61df"><path d="M 483.675781 687.730469 L 798.453125 329.460938 L 372.128906 -45.109375 L 57.351562 313.160156 Z M 483.675781 687.730469 " clip-rule="nonzero"/></clipPath><clipPath id="5867200a8c"><path d="M 483.675781 687.730469 L 798.453125 329.460938 L 372.128906 -45.109375 L 57.351562 313.160156 Z M 483.675781 687.730469 " clip-rule="nonzero"/></clipPath><clipPath id="ce170d5ada"><path d="M 206.128906 407.105469 C 169.972656 395.273438 127.9375 375.179688 105.105469 343.730469 C 94.542969 329.792969 86.796875 312.058594 89.25 294.222656 C 91.410156 276.84375 102.492188 261.828125 116.324219 251.734375 C 100.847656 267.210938 90.847656 288.320312 97.507812 310.164062 C 100.488281 320.328125 106.46875 329.28125 113.304688 337.277344 C 139.203125 368.210938 188.230469 386.816406 226.5625 396.878906 C 266.425781 407.253906 307.65625 412.078125 348.847656 412.792969 C 386.183594 413.414062 423.441406 410.503906 460.355469 404.472656 C 480.96875 401.136719 501.464844 396.707031 521.734375 391.6875 C 424.664062 431.957031 306.507812 439.167969 206.128906 407.105469 Z M 206.128906 407.105469 " clip-rule="nonzero"/></clipPath><linearGradient x1="-362.865688" gradientTransform="matrix(0.147354, -0.167713, -0.16763, -0.147281, 486.164299, 682.218878)" y1="1633.19897" x2="1553.729968" gradientUnits="userSpaceOnUse" y2="1633.19897" id="44648f508e"><stop stop-opacity="1" stop-color="rgb(55.299377%, 41.19873%, 7.798767%)" offset="0"/><stop stop-opacity="1" stop-color="rgb(55.299377%, 41.19873%, 7.798767%)" offset="0.125"/><stop stop-opacity="1" stop-color="rgb(55.299377%, 41.19873%, 7.798767%)" offset="0.1875"/><stop stop-opacity="1" stop-color="rgb(55.436707%, 41.323853%, 7.835388%)" offset="0.195313"/><stop stop-opacity="1" stop-color="rgb(55.752563%, 41.612244%, 7.919312%)" offset="0.203125"/><stop stop-opacity="1" stop-color="rgb(56.111145%, 41.940308%, 8.015442%)" offset="0.210938"/><stop stop-opacity="1" stop-color="rgb(56.469727%, 42.266846%, 8.111572%)" offset="0.21875"/><stop stop-opacity="1" stop-color="rgb(56.828308%, 42.593384%, 8.206177%)" offset="0.226562"/><stop stop-opacity="1" stop-color="rgb(57.18689%, 42.919922%, 8.302307%)" offset="0.234375"/><stop stop-opacity="1" stop-color="rgb(57.545471%, 43.24646%, 8.398438%)" offset="0.242188"/><stop stop-opacity="1" stop-color="rgb(57.904053%, 43.572998%, 8.493042%)" offset="0.25"/><stop stop-opacity="1" stop-color="rgb(58.262634%, 43.901062%, 8.589172%)" offset="0.257812"/><stop stop-opacity="1" stop-color="rgb(58.621216%, 44.2276%, 8.685303%)" offset="0.265625"/><stop stop-opacity="1" stop-color="rgb(58.981323%, 44.554138%, 8.779907%)" offset="0.273438"/><stop stop-opacity="1" stop-color="rgb(59.339905%, 44.880676%, 8.876038%)" offset="0.28125"/><stop stop-opacity="1" stop-color="rgb(59.698486%, 45.207214%, 8.972168%)" offset="0.289062"/><stop stop-opacity="1" stop-color="rgb(60.057068%, 45.533752%, 9.068298%)" offset="0.296875"/><stop stop-opacity="1" stop-color="rgb(60.415649%, 45.860291%, 9.162903%)" offset="0.304688"/><stop stop-opacity="1" stop-color="rgb(60.774231%, 46.188354%, 9.259033%)" offset="0.3125"/><stop stop-opacity="1" stop-color="rgb(61.132812%, 46.514893%, 9.355164%)" offset="0.320313"/><stop stop-opacity="1" stop-color="rgb(61.491394%, 46.841431%, 9.449768%)" offset="0.328125"/><stop stop-opacity="1" stop-color="rgb(61.849976%, 47.167969%, 9.545898%)" offset="0.335938"/><stop stop-opacity="1" stop-color="rgb(62.208557%, 47.494507%, 9.642029%)" offset="0.34375"/><stop stop-opacity="1" stop-color="rgb(62.567139%, 47.821045%, 9.736633%)" offset="0.351563"/><stop stop-opacity="1" stop-color="rgb(62.92572%, 48.149109%, 9.832764%)" offset="0.359375"/><stop stop-opacity="1" stop-color="rgb(63.284302%, 48.475647%, 9.928894%)" offset="0.367188"/><stop stop-opacity="1" stop-color="rgb(63.642883%, 48.802185%, 10.023499%)" offset="0.375"/><stop stop-opacity="1" stop-color="rgb(64.001465%, 49.128723%, 10.119629%)" offset="0.382813"/><stop stop-opacity="1" stop-color="rgb(64.433289%, 49.5224%, 10.25238%)" offset="0.386719"/><stop stop-opacity="1" stop-color="rgb(64.685059%, 49.754333%, 10.33783%)" offset="0.390625"/><stop stop-opacity="1" stop-color="rgb(64.971924%, 50.018311%, 10.440063%)" offset="0.394531"/><stop stop-opacity="1" stop-color="rgb(65.258789%, 50.283813%, 10.543823%)" offset="0.398438"/><stop stop-opacity="1" stop-color="rgb(65.545654%, 50.547791%, 10.646057%)" offset="0.402344"/><stop stop-opacity="1" stop-color="rgb(65.83252%, 50.811768%, 10.749817%)" offset="0.40625"/><stop stop-opacity="1" stop-color="rgb(66.117859%, 51.075745%, 10.852051%)" offset="0.410156"/><stop stop-opacity="1" stop-color="rgb(66.404724%, 51.339722%, 10.955811%)" offset="0.414063"/><stop stop-opacity="1" stop-color="rgb(66.691589%, 51.603699%, 11.058044%)" offset="0.417969"/><stop stop-opacity="1" stop-color="rgb(66.978455%, 51.869202%, 11.161804%)" offset="0.421875"/><stop stop-opacity="1" stop-color="rgb(67.26532%, 52.133179%, 11.264038%)" offset="0.425781"/><stop stop-opacity="1" stop-color="rgb(67.552185%, 52.397156%, 11.367798%)" offset="0.429688"/><stop stop-opacity="1" stop-color="rgb(67.83905%, 52.661133%, 11.471558%)" offset="0.433594"/><stop stop-opacity="1" stop-color="rgb(68.125916%, 52.92511%, 11.575317%)" offset="0.4375"/><stop stop-opacity="1" stop-color="rgb(68.411255%, 53.189087%, 11.677551%)" offset="0.441406"/><stop stop-opacity="1" stop-color="rgb(68.69812%, 53.453064%, 11.781311%)" offset="0.445313"/><stop stop-opacity="1" stop-color="rgb(68.984985%, 53.717041%, 11.883545%)" offset="0.449219"/><stop stop-opacity="1" stop-color="rgb(69.271851%, 53.982544%, 11.987305%)" offset="0.453125"/><stop stop-opacity="1" stop-color="rgb(69.558716%, 54.246521%, 12.089539%)" offset="0.457031"/><stop stop-opacity="1" stop-color="rgb(69.845581%, 54.510498%, 12.193298%)" offset="0.460938"/><stop stop-opacity="1" stop-color="rgb(70.132446%, 54.774475%, 12.295532%)" offset="0.464844"/><stop stop-opacity="1" stop-color="rgb(70.419312%, 55.038452%, 12.399292%)" offset="0.46875"/><stop stop-opacity="1" stop-color="rgb(70.706177%, 55.302429%, 12.501526%)" offset="0.472656"/><stop stop-opacity="1" stop-color="rgb(70.993042%, 55.567932%, 12.605286%)" offset="0.476563"/><stop stop-opacity="1" stop-color="rgb(71.278381%, 55.831909%, 12.70752%)" offset="0.480469"/><stop stop-opacity="1" stop-color="rgb(71.565247%, 56.095886%, 12.811279%)" offset="0.484375"/><stop stop-opacity="1" stop-color="rgb(71.852112%, 56.359863%, 12.913513%)" offset="0.488281"/><stop stop-opacity="1" stop-color="rgb(72.138977%, 56.62384%, 13.017273%)" offset="0.492188"/><stop stop-opacity="1" stop-color="rgb(72.425842%, 56.887817%, 13.119507%)" offset="0.496094"/><stop stop-opacity="1" stop-color="rgb(72.712708%, 57.15332%, 13.223267%)" offset="0.5"/><stop stop-opacity="1" stop-color="rgb(72.999573%, 57.417297%, 13.3255%)" offset="0.503906"/><stop stop-opacity="1" stop-color="rgb(73.286438%, 57.681274%, 13.42926%)" offset="0.507813"/><stop stop-opacity="1" stop-color="rgb(73.571777%, 57.945251%, 13.531494%)" offset="0.511719"/><stop stop-opacity="1" stop-color="rgb(73.858643%, 58.209229%, 13.635254%)" offset="0.515625"/><stop stop-opacity="1" stop-color="rgb(74.145508%, 58.473206%, 13.737488%)" offset="0.519531"/><stop stop-opacity="1" stop-color="rgb(74.432373%, 58.737183%, 13.841248%)" offset="0.523438"/><stop stop-opacity="1" stop-color="rgb(74.719238%, 59.00116%, 13.945007%)" offset="0.527344"/><stop stop-opacity="1" stop-color="rgb(75.006104%, 59.266663%, 14.048767%)" offset="0.53125"/><stop stop-opacity="1" stop-color="rgb(75.292969%, 59.53064%, 14.151001%)" offset="0.535156"/><stop stop-opacity="1" stop-color="rgb(75.579834%, 59.794617%, 14.254761%)" offset="0.539063"/><stop stop-opacity="1" stop-color="rgb(75.865173%, 60.058594%, 14.356995%)" offset="0.542969"/><stop stop-opacity="1" stop-color="rgb(76.152039%, 60.322571%, 14.460754%)" offset="0.546875"/><stop stop-opacity="1" stop-color="rgb(76.438904%, 60.586548%, 14.562988%)" offset="0.550781"/><stop stop-opacity="1" stop-color="rgb(76.725769%, 60.852051%, 14.666748%)" offset="0.554688"/><stop stop-opacity="1" stop-color="rgb(77.012634%, 61.116028%, 14.768982%)" offset="0.558594"/><stop stop-opacity="1" stop-color="rgb(77.2995%, 61.380005%, 14.872742%)" offset="0.5625"/><stop stop-opacity="1" stop-color="rgb(77.586365%, 61.643982%, 14.974976%)" offset="0.566406"/><stop stop-opacity="1" stop-color="rgb(77.87323%, 61.907959%, 15.078735%)" offset="0.570313"/><stop stop-opacity="1" stop-color="rgb(78.160095%, 62.171936%, 15.180969%)" offset="0.574219"/><stop stop-opacity="1" stop-color="rgb(78.44696%, 62.437439%, 15.284729%)" offset="0.578125"/><stop stop-opacity="1" stop-color="rgb(78.7323%, 62.701416%, 15.386963%)" offset="0.582031"/><stop stop-opacity="1" stop-color="rgb(79.019165%, 62.965393%, 15.490723%)" offset="0.585938"/><stop stop-opacity="1" stop-color="rgb(79.30603%, 63.22937%, 15.592957%)" offset="0.589844"/><stop stop-opacity="1" stop-color="rgb(79.592896%, 63.493347%, 15.696716%)" offset="0.59375"/><stop stop-opacity="1" stop-color="rgb(79.905701%, 63.827515%, 15.782166%)" offset="0.597656"/><stop stop-opacity="1" stop-color="rgb(80.220032%, 64.163208%, 15.867615%)" offset="0.601562"/><stop stop-opacity="1" stop-color="rgb(80.534363%, 64.498901%, 15.953064%)" offset="0.605469"/><stop stop-opacity="1" stop-color="rgb(80.848694%, 64.836121%, 16.038513%)" offset="0.609375"/><stop stop-opacity="1" stop-color="rgb(81.163025%, 65.171814%, 16.123962%)" offset="0.613281"/><stop stop-opacity="1" stop-color="rgb(81.477356%, 65.507507%, 16.209412%)" offset="0.617188"/><stop stop-opacity="1" stop-color="rgb(81.790161%, 65.843201%, 16.293335%)" offset="0.621094"/><stop stop-opacity="1" stop-color="rgb(82.104492%, 66.18042%, 16.378784%)" offset="0.625"/><stop stop-opacity="1" stop-color="rgb(82.418823%, 66.516113%, 16.464233%)" offset="0.628906"/><stop stop-opacity="1" stop-color="rgb(82.733154%, 66.851807%, 16.549683%)" offset="0.632813"/><stop stop-opacity="1" stop-color="rgb(83.047485%, 67.1875%, 16.635132%)" offset="0.636719"/><stop stop-opacity="1" stop-color="rgb(83.361816%, 67.523193%, 16.720581%)" offset="0.640625"/><stop stop-opacity="1" stop-color="rgb(83.674622%, 67.858887%, 16.804504%)" offset="0.644531"/><stop stop-opacity="1" stop-color="rgb(83.988953%, 68.196106%, 16.889954%)" offset="0.648438"/><stop stop-opacity="1" stop-color="rgb(84.303284%, 68.531799%, 16.975403%)" offset="0.652344"/><stop stop-opacity="1" stop-color="rgb(84.617615%, 68.867493%, 17.060852%)" offset="0.65625"/><stop stop-opacity="1" stop-color="rgb(84.931946%, 69.203186%, 17.146301%)" offset="0.660156"/><stop stop-opacity="1" stop-color="rgb(85.246277%, 69.538879%, 17.23175%)" offset="0.664063"/><stop stop-opacity="1" stop-color="rgb(85.559082%, 69.874573%, 17.315674%)" offset="0.667969"/><stop stop-opacity="1" stop-color="rgb(85.873413%, 70.211792%, 17.401123%)" offset="0.671875"/><stop stop-opacity="1" stop-color="rgb(86.187744%, 70.547485%, 17.486572%)" offset="0.675781"/><stop stop-opacity="1" stop-color="rgb(86.502075%, 70.883179%, 17.572021%)" offset="0.679688"/><stop stop-opacity="1" stop-color="rgb(86.816406%, 71.218872%, 17.657471%)" offset="0.683594"/><stop stop-opacity="1" stop-color="rgb(87.130737%, 71.556091%, 17.74292%)" offset="0.6875"/><stop stop-opacity="1" stop-color="rgb(87.443542%, 71.891785%, 17.826843%)" offset="0.691406"/><stop stop-opacity="1" stop-color="rgb(87.757874%, 72.227478%, 17.912292%)" offset="0.695312"/><stop stop-opacity="1" stop-color="rgb(88.072205%, 72.563171%, 17.997742%)" offset="0.699219"/><stop stop-opacity="1" stop-color="rgb(88.386536%, 72.898865%, 18.083191%)" offset="0.703125"/><stop stop-opacity="1" stop-color="rgb(88.699341%, 73.234558%, 18.16864%)" offset="0.707031"/><stop stop-opacity="1" stop-color="rgb(89.013672%, 73.571777%, 18.254089%)" offset="0.710938"/><stop stop-opacity="1" stop-color="rgb(89.328003%, 73.907471%, 18.338013%)" offset="0.714844"/><stop stop-opacity="1" stop-color="rgb(89.642334%, 74.243164%, 18.423462%)" offset="0.71875"/><stop stop-opacity="1" stop-color="rgb(89.956665%, 74.578857%, 18.508911%)" offset="0.722656"/><stop stop-opacity="1" stop-color="rgb(90.270996%, 74.914551%, 18.59436%)" offset="0.726563"/><stop stop-opacity="1" stop-color="rgb(90.583801%, 75.250244%, 18.67981%)" offset="0.730469"/><stop stop-opacity="1" stop-color="rgb(90.898132%, 75.587463%, 18.765259%)" offset="0.734375"/><stop stop-opacity="1" stop-color="rgb(91.212463%, 75.923157%, 18.850708%)" offset="0.738281"/><stop stop-opacity="1" stop-color="rgb(91.526794%, 76.25885%, 18.936157%)" offset="0.742188"/><stop stop-opacity="1" stop-color="rgb(91.841125%, 76.594543%, 19.020081%)" offset="0.746094"/><stop stop-opacity="1" stop-color="rgb(92.155457%, 76.931763%, 19.10553%)" offset="0.75"/><stop stop-opacity="1" stop-color="rgb(92.326355%, 77.114868%, 19.151306%)" offset="1"/></linearGradient><clipPath id="5e99036351"><path d="M 132.863281 180.800781 L 275.859375 180.800781 L 275.859375 317.058594 L 132.863281 317.058594 Z M 132.863281 180.800781 " clip-rule="nonzero"/></clipPath></defs><g clip-path="url(#71099aa12a)"><path fill="#ffffff" d="M 0.5 0 L 708 0 L 708 566 L 0.5 566 Z M 0.5 0 " fill-opacity="1" fill-rule="nonzero"/><path fill="#ffffff" d="M 0.5 0 L 708 0 L 708 566 L 0.5 566 Z M 0.5 0 " fill-opacity="1" fill-rule="nonzero"/></g><g clip-path="url(#598d36fed0)"><g clip-path="url(#75eb12e518)"><g clip-path="url(#939f2721b1)"><g clip-path="url(#53a4c0f3e6)"><g clip-path="url(#c1e2dd70f6)"><path fill="url(#283053e6d8)" d="M 258.957031 61.339844 L 233.640625 198.601562 L 391.636719 227.738281 L 416.949219 90.480469 Z M 258.957031 61.339844 " fill-rule="nonzero"/></g></g></g></g></g><g clip-path="url(#3c98edfc01)"><g clip-path="url(#8e26fee594)"><g clip-path="url(#a2b770beeb)"><g clip-path="url(#a09b19f908)"><g clip-path="url(#277ddadf44)"><path fill="url(#58cdf57457)" d="M 252.542969 168.132812 L 245.441406 206.625 L 259.34375 209.1875 L 266.441406 170.695312 Z M 252.542969 168.132812 " fill-rule="nonzero"/></g></g></g></g></g><g fill="#c6a325" fill-opacity="1"><g transform="translate(284.413996, 316.601929)"><g><path d="M 13.0625 0 C 11.238281 0 9.804688 -0.503906 8.765625 -1.515625 C 7.722656 -2.523438 7.203125 -3.945312 7.203125 -5.78125 L 7.203125 -60.984375 C 7.203125 -62.816406 7.722656 -64.238281 8.765625 -65.25 C 9.804688 -66.257812 11.238281 -66.765625 13.0625 -66.765625 L 47.25 -66.765625 C 49.082031 -66.765625 50.503906 -66.351562 51.515625 -65.53125 C 52.523438 -64.707031 53.03125 -63.539062 53.03125 -62.03125 C 53.03125 -60.445312 52.523438 -59.226562 51.515625 -58.375 C 50.503906 -57.53125 49.082031 -57.109375 47.25 -57.109375 L 19.125 -57.109375 L 19.125 -38.734375 L 45.359375 -38.734375 C 47.191406 -38.734375 48.613281 -38.320312 49.625 -37.5 C 50.632812 -36.675781 51.140625 -35.476562 51.140625 -33.90625 C 51.140625 -32.382812 50.632812 -31.210938 49.625 -30.390625 C 48.613281 -29.578125 47.191406 -29.171875 45.359375 -29.171875 L 19.125 -29.171875 L 19.125 -9.65625 L 47.25 -9.65625 C 49.082031 -9.65625 50.503906 -9.226562 51.515625 -8.375 C 52.523438 -7.53125 53.03125 -6.316406 53.03125 -4.734375 C 53.03125 -3.222656 52.523438 -2.054688 51.515625 -1.234375 C 50.503906 -0.410156 49.082031 0 47.25 0 Z M 13.0625 0 "/></g></g></g><g fill="#c6a325" fill-opacity="1"><g transform="translate(341.042249, 316.601929)"><g><path d="M 29.078125 0.46875 C 27.179688 0.46875 25.679688 -0.0820312 24.578125 -1.1875 C 23.472656 -2.289062 22.921875 -3.757812 22.921875 -5.59375 L 22.921875 -56.734375 L 5.6875 -56.734375 C 1.894531 -56.734375 0 -58.40625 0 -61.75 C 0 -65.09375 1.894531 -66.765625 5.6875 -66.765625 L 52.375 -66.765625 C 56.15625 -66.765625 58.046875 -65.09375 58.046875 -61.75 C 58.046875 -58.40625 56.15625 -56.734375 52.375 -56.734375 L 35.140625 -56.734375 L 35.140625 -5.59375 C 35.140625 -3.757812 34.582031 -2.289062 33.46875 -1.1875 C 32.363281 -0.0820312 30.898438 0.46875 29.078125 0.46875 Z M 29.078125 0.46875 "/></g></g></g><g fill="#c6a325" fill-opacity="1"><g transform="translate(399.943204, 316.601929)"><g><path d="M 67.71875 -7.296875 C 68.09375 -6.472656 68.28125 -5.648438 68.28125 -4.828125 C 68.28125 -3.378906 67.695312 -2.148438 66.53125 -1.140625 C 65.363281 -0.128906 64.019531 0.375 62.5 0.375 C 61.488281 0.375 60.539062 0.109375 59.65625 -0.421875 C 58.78125 -0.960938 58.085938 -1.800781 57.578125 -2.9375 L 51.890625 -15.625 L 18.5625 -15.625 L 12.875 -2.9375 C 12.375 -1.800781 11.679688 -0.960938 10.796875 -0.421875 C 9.910156 0.109375 8.929688 0.375 7.859375 0.375 C 6.410156 0.375 5.082031 -0.128906 3.875 -1.140625 C 2.675781 -2.148438 2.078125 -3.378906 2.078125 -4.828125 C 2.078125 -5.648438 2.269531 -6.472656 2.65625 -7.296875 L 28.796875 -63.453125 C 29.359375 -64.710938 30.222656 -65.671875 31.390625 -66.328125 C 32.554688 -66.992188 33.804688 -67.328125 35.140625 -67.328125 C 36.460938 -67.328125 37.707031 -66.992188 38.875 -66.328125 C 40.039062 -65.671875 40.910156 -64.710938 41.484375 -63.453125 Z M 22.734375 -25.09375 L 47.734375 -25.09375 L 35.234375 -53.21875 Z M 22.734375 -25.09375 "/></g></g></g><g fill="#c6a325" fill-opacity="1"><g transform="translate(471.059947, 316.601929)"><g><path d="M 13.265625 0.5625 C 11.429688 0.5625 9.960938 -0.00390625 8.859375 -1.140625 C 7.753906 -2.273438 7.203125 -3.757812 7.203125 -5.59375 L 7.203125 -61.171875 C 7.203125 -63.003906 7.753906 -64.472656 8.859375 -65.578125 C 9.960938 -66.679688 11.429688 -67.234375 13.265625 -67.234375 C 15.148438 -67.234375 16.644531 -66.679688 17.75 -65.578125 C 18.863281 -64.472656 19.421875 -63.003906 19.421875 -61.171875 L 19.421875 -5.59375 C 19.421875 -3.757812 18.863281 -2.273438 17.75 -1.140625 C 16.644531 -0.00390625 15.148438 0.5625 13.265625 0.5625 Z M 13.265625 0.5625 "/></g></g></g><g fill="#c6a325" fill-opacity="1"><g transform="translate(498.521831, 316.601929)"><g><path d="M 12.96875 0 C 11.144531 0 9.726562 -0.503906 8.71875 -1.515625 C 7.707031 -2.523438 7.203125 -3.914062 7.203125 -5.6875 L 7.203125 -61.171875 C 7.203125 -63.003906 7.753906 -64.472656 8.859375 -65.578125 C 9.960938 -66.679688 11.429688 -67.234375 13.265625 -67.234375 C 15.148438 -67.234375 16.644531 -66.679688 17.75 -65.578125 C 18.863281 -64.472656 19.421875 -63.003906 19.421875 -61.171875 L 19.421875 -10.03125 L 46.03125 -10.03125 C 49.8125 -10.03125 51.703125 -8.359375 51.703125 -5.015625 C 51.703125 -1.671875 49.8125 0 46.03125 0 Z M 12.96875 0 "/></g></g></g><g fill="#c6a325" fill-opacity="1"><g transform="translate(551.930422, 316.601929)"><g><path d="M 30.3125 0.859375 C 25.445312 0.859375 20.847656 0.210938 16.515625 -1.078125 C 12.191406 -2.378906 8.675781 -4.132812 5.96875 -6.34375 C 4.507812 -7.414062 3.78125 -8.929688 3.78125 -10.890625 C 3.78125 -12.210938 4.175781 -13.363281 4.96875 -14.34375 C 5.757812 -15.320312 6.691406 -15.8125 7.765625 -15.8125 C 8.898438 -15.8125 10.195312 -15.367188 11.65625 -14.484375 C 14.363281 -12.523438 17.203125 -11.101562 20.171875 -10.21875 C 23.140625 -9.34375 26.421875 -8.90625 30.015625 -8.90625 C 34.628906 -8.90625 38.164062 -9.707031 40.625 -11.3125 C 43.09375 -12.925781 44.328125 -15.28125 44.328125 -18.375 C 44.328125 -20.769531 43.171875 -22.613281 40.859375 -23.90625 C 38.554688 -25.207031 34.722656 -26.457031 29.359375 -27.65625 C 23.804688 -28.851562 19.289062 -30.238281 15.8125 -31.8125 C 12.34375 -33.394531 9.722656 -35.414062 7.953125 -37.875 C 6.179688 -40.34375 5.296875 -43.46875 5.296875 -47.25 C 5.296875 -51.164062 6.398438 -54.671875 8.609375 -57.765625 C 10.828125 -60.859375 13.90625 -63.273438 17.84375 -65.015625 C 21.789062 -66.753906 26.226562 -67.625 31.15625 -67.625 C 40.1875 -67.625 47.539062 -65.222656 53.21875 -60.421875 C 54.039062 -59.722656 54.625 -59.039062 54.96875 -58.375 C 55.320312 -57.71875 55.5 -56.882812 55.5 -55.875 C 55.5 -54.550781 55.101562 -53.398438 54.3125 -52.421875 C 53.519531 -51.441406 52.585938 -50.953125 51.515625 -50.953125 C 50.890625 -50.953125 50.304688 -51.046875 49.765625 -51.234375 C 49.234375 -51.421875 48.523438 -51.769531 47.640625 -52.28125 C 45.046875 -54.175781 42.53125 -55.578125 40.09375 -56.484375 C 37.664062 -57.398438 34.6875 -57.859375 31.15625 -57.859375 C 26.863281 -57.859375 23.46875 -56.988281 20.96875 -55.25 C 18.476562 -53.519531 17.234375 -51.109375 17.234375 -48.015625 C 17.234375 -45.421875 18.335938 -43.429688 20.546875 -42.046875 C 22.753906 -40.660156 26.507812 -39.367188 31.8125 -38.171875 C 37.4375 -36.898438 42 -35.488281 45.5 -33.9375 C 49.007812 -32.394531 51.691406 -30.425781 53.546875 -28.03125 C 55.410156 -25.632812 56.34375 -22.632812 56.34375 -19.03125 C 56.34375 -15.113281 55.253906 -11.65625 53.078125 -8.65625 C 50.898438 -5.664062 47.835938 -3.332031 43.890625 -1.65625 C 39.941406 0.0195312 35.414062 0.859375 30.3125 0.859375 Z M 30.3125 0.859375 "/></g></g></g><g fill="#737373" fill-opacity="1"><g transform="translate(340.0832, 342.240162)"><g><path d="M 6.4375 0.109375 C 6.019531 0.109375 5.6875 -0.0078125 5.4375 -0.25 C 5.195312 -0.5 5.078125 -0.828125 5.078125 -1.234375 L 5.078125 -12.5625 L 1.265625 -12.5625 C 0.421875 -12.5625 0 -12.929688 0 -13.671875 C 0 -14.410156 0.421875 -14.78125 1.265625 -14.78125 L 11.59375 -14.78125 C 12.4375 -14.78125 12.859375 -14.410156 12.859375 -13.671875 C 12.859375 -12.929688 12.4375 -12.5625 11.59375 -12.5625 L 7.78125 -12.5625 L 7.78125 -1.234375 C 7.78125 -0.828125 7.65625 -0.5 7.40625 -0.25 C 7.164062 -0.0078125 6.84375 0.109375 6.4375 0.109375 Z M 6.4375 0.109375 "/></g></g></g><g fill="#737373" fill-opacity="1"><g transform="translate(352.912632, 342.240162)"><g><path d="M 13.421875 -1.703125 C 13.585938 -1.453125 13.671875 -1.207031 13.671875 -0.96875 C 13.671875 -0.644531 13.539062 -0.378906 13.28125 -0.171875 C 13.019531 0.0351562 12.71875 0.140625 12.375 0.140625 C 12.144531 0.140625 11.925781 0.0859375 11.71875 -0.015625 C 11.519531 -0.117188 11.351562 -0.273438 11.21875 -0.484375 L 8.421875 -4.71875 C 8.148438 -5.164062 7.851562 -5.476562 7.53125 -5.65625 C 7.21875 -5.84375 6.8125 -5.9375 6.3125 -5.9375 L 4.25 -5.9375 L 4.25 -1.234375 C 4.25 -0.816406 4.128906 -0.484375 3.890625 -0.234375 C 3.660156 0.00390625 3.34375 0.125 2.9375 0.125 C 2.53125 0.125 2.203125 0.00390625 1.953125 -0.234375 C 1.710938 -0.484375 1.59375 -0.816406 1.59375 -1.234375 L 1.59375 -13.5 C 1.59375 -13.90625 1.707031 -14.21875 1.9375 -14.4375 C 2.164062 -14.664062 2.484375 -14.78125 2.890625 -14.78125 L 8.140625 -14.78125 C 9.816406 -14.78125 11.085938 -14.40625 11.953125 -13.65625 C 12.828125 -12.914062 13.265625 -11.835938 13.265625 -10.421875 C 13.265625 -9.273438 12.941406 -8.332031 12.296875 -7.59375 C 11.648438 -6.863281 10.734375 -6.394531 9.546875 -6.1875 C 9.953125 -6.082031 10.304688 -5.90625 10.609375 -5.65625 C 10.921875 -5.40625 11.222656 -5.054688 11.515625 -4.609375 Z M 7.765625 -8.015625 C 8.785156 -8.015625 9.53125 -8.203125 10 -8.578125 C 10.476562 -8.960938 10.71875 -9.554688 10.71875 -10.359375 C 10.71875 -11.171875 10.476562 -11.757812 10 -12.125 C 9.53125 -12.5 8.785156 -12.6875 7.765625 -12.6875 L 4.234375 -12.6875 L 4.234375 -8.015625 Z M 7.765625 -8.015625 "/></g></g></g><g fill="#737373" fill-opacity="1"><g transform="translate(367.461035, 342.240162)"><g><path d="M 15 -1.609375 C 15.082031 -1.429688 15.125 -1.25 15.125 -1.0625 C 15.125 -0.75 14.992188 -0.476562 14.734375 -0.25 C 14.472656 -0.03125 14.175781 0.078125 13.84375 0.078125 C 13.613281 0.078125 13.398438 0.0195312 13.203125 -0.09375 C 13.015625 -0.207031 12.863281 -0.394531 12.75 -0.65625 L 11.484375 -3.453125 L 4.109375 -3.453125 L 2.859375 -0.65625 C 2.742188 -0.394531 2.585938 -0.207031 2.390625 -0.09375 C 2.191406 0.0195312 1.972656 0.078125 1.734375 0.078125 C 1.421875 0.078125 1.128906 -0.03125 0.859375 -0.25 C 0.597656 -0.476562 0.46875 -0.75 0.46875 -1.0625 C 0.46875 -1.25 0.507812 -1.429688 0.59375 -1.609375 L 6.375 -14.046875 C 6.5 -14.328125 6.691406 -14.539062 6.953125 -14.6875 C 7.210938 -14.832031 7.488281 -14.90625 7.78125 -14.90625 C 8.070312 -14.90625 8.347656 -14.832031 8.609375 -14.6875 C 8.867188 -14.539062 9.0625 -14.328125 9.1875 -14.046875 Z M 5.03125 -5.5625 L 10.5625 -5.5625 L 7.796875 -11.78125 Z M 5.03125 -5.5625 "/></g></g></g><g fill="#737373" fill-opacity="1"><g transform="translate(382.994708, 342.240162)"><g><path d="M 12.34375 -14.203125 C 12.570312 -14.671875 12.945312 -14.90625 13.46875 -14.90625 C 13.8125 -14.90625 14.125 -14.789062 14.40625 -14.5625 C 14.6875 -14.34375 14.828125 -14.066406 14.828125 -13.734375 C 14.828125 -13.578125 14.785156 -13.398438 14.703125 -13.203125 L 8.890625 -0.71875 C 8.765625 -0.445312 8.570312 -0.238281 8.3125 -0.09375 C 8.050781 0.0507812 7.773438 0.125 7.484375 0.125 C 7.191406 0.125 6.914062 0.0507812 6.65625 -0.09375 C 6.394531 -0.238281 6.203125 -0.445312 6.078125 -0.71875 L 0.296875 -13.203125 C 0.210938 -13.398438 0.171875 -13.570312 0.171875 -13.71875 C 0.171875 -14.0625 0.3125 -14.34375 0.59375 -14.5625 C 0.882812 -14.789062 1.210938 -14.90625 1.578125 -14.90625 C 1.804688 -14.90625 2.019531 -14.84375 2.21875 -14.71875 C 2.425781 -14.601562 2.585938 -14.429688 2.703125 -14.203125 L 7.53125 -3.484375 Z M 12.34375 -14.203125 "/></g></g></g><g fill="#737373" fill-opacity="1"><g transform="translate(397.941407, 342.240162)"><g><path d="M 2.890625 0 C 2.484375 0 2.164062 -0.109375 1.9375 -0.328125 C 1.707031 -0.554688 1.59375 -0.875 1.59375 -1.28125 L 1.59375 -13.5 C 1.59375 -13.90625 1.707031 -14.21875 1.9375 -14.4375 C 2.164062 -14.664062 2.484375 -14.78125 2.890625 -14.78125 L 10.46875 -14.78125 C 10.875 -14.78125 11.1875 -14.6875 11.40625 -14.5 C 11.632812 -14.320312 11.75 -14.066406 11.75 -13.734375 C 11.75 -13.378906 11.632812 -13.109375 11.40625 -12.921875 C 11.1875 -12.734375 10.875 -12.640625 10.46875 -12.640625 L 4.234375 -12.640625 L 4.234375 -8.578125 L 10.046875 -8.578125 C 10.453125 -8.578125 10.765625 -8.484375 10.984375 -8.296875 C 11.210938 -8.117188 11.328125 -7.851562 11.328125 -7.5 C 11.328125 -7.164062 11.210938 -6.90625 10.984375 -6.71875 C 10.765625 -6.539062 10.453125 -6.453125 10.046875 -6.453125 L 4.234375 -6.453125 L 4.234375 -2.140625 L 10.46875 -2.140625 C 10.875 -2.140625 11.1875 -2.046875 11.40625 -1.859375 C 11.632812 -1.671875 11.75 -1.398438 11.75 -1.046875 C 11.75 -0.710938 11.632812 -0.453125 11.40625 -0.265625 C 11.1875 -0.0859375 10.875 0 10.46875 0 Z M 2.890625 0 "/></g></g></g><g fill="#737373" fill-opacity="1"><g transform="translate(410.267716, 342.240162)"><g><path d="M 2.875 0 C 2.46875 0 2.148438 -0.109375 1.921875 -0.328125 C 1.703125 -0.554688 1.59375 -0.867188 1.59375 -1.265625 L 1.59375 -13.546875 C 1.59375 -13.953125 1.710938 -14.273438 1.953125 -14.515625 C 2.203125 -14.765625 2.53125 -14.890625 2.9375 -14.890625 C 3.351562 -14.890625 3.679688 -14.765625 3.921875 -14.515625 C 4.171875 -14.273438 4.296875 -13.953125 4.296875 -13.546875 L 4.296875 -2.21875 L 10.1875 -2.21875 C 11.03125 -2.21875 11.453125 -1.847656 11.453125 -1.109375 C 11.453125 -0.367188 11.03125 0 10.1875 0 Z M 2.875 0 "/></g></g></g><g fill="#737373" fill-opacity="1"><g transform="translate(421.881286, 342.240162)"><g><path d="M 6.703125 0.1875 C 5.628906 0.1875 4.613281 0.046875 3.65625 -0.234375 C 2.695312 -0.523438 1.921875 -0.914062 1.328125 -1.40625 C 1.003906 -1.644531 0.84375 -1.976562 0.84375 -2.40625 C 0.84375 -2.707031 0.925781 -2.960938 1.09375 -3.171875 C 1.269531 -3.390625 1.476562 -3.5 1.71875 -3.5 C 1.96875 -3.5 2.253906 -3.398438 2.578125 -3.203125 C 3.179688 -2.773438 3.8125 -2.460938 4.46875 -2.265625 C 5.125 -2.066406 5.847656 -1.96875 6.640625 -1.96875 C 7.660156 -1.96875 8.441406 -2.144531 8.984375 -2.5 C 9.535156 -2.863281 9.8125 -3.382812 9.8125 -4.0625 C 9.8125 -4.59375 9.554688 -5 9.046875 -5.28125 C 8.535156 -5.570312 7.6875 -5.851562 6.5 -6.125 C 5.269531 -6.382812 4.269531 -6.6875 3.5 -7.03125 C 2.726562 -7.382812 2.144531 -7.832031 1.75 -8.375 C 1.363281 -8.925781 1.171875 -9.625 1.171875 -10.46875 C 1.171875 -11.332031 1.414062 -12.101562 1.90625 -12.78125 C 2.394531 -13.46875 3.078125 -14.003906 3.953125 -14.390625 C 4.828125 -14.773438 5.8125 -14.96875 6.90625 -14.96875 C 8.894531 -14.96875 10.519531 -14.4375 11.78125 -13.375 C 11.96875 -13.21875 12.097656 -13.066406 12.171875 -12.921875 C 12.242188 -12.773438 12.28125 -12.59375 12.28125 -12.375 C 12.28125 -12.082031 12.191406 -11.828125 12.015625 -11.609375 C 11.847656 -11.390625 11.644531 -11.28125 11.40625 -11.28125 C 11.269531 -11.28125 11.140625 -11.300781 11.015625 -11.34375 C 10.898438 -11.382812 10.742188 -11.460938 10.546875 -11.578125 C 9.972656 -11.992188 9.414062 -12.300781 8.875 -12.5 C 8.34375 -12.707031 7.6875 -12.8125 6.90625 -12.8125 C 5.945312 -12.8125 5.191406 -12.617188 4.640625 -12.234375 C 4.085938 -11.847656 3.8125 -11.3125 3.8125 -10.625 C 3.8125 -10.050781 4.054688 -9.609375 4.546875 -9.296875 C 5.035156 -8.992188 5.867188 -8.710938 7.046875 -8.453125 C 8.285156 -8.171875 9.289062 -7.859375 10.0625 -7.515625 C 10.84375 -7.171875 11.4375 -6.734375 11.84375 -6.203125 C 12.257812 -5.671875 12.46875 -5.007812 12.46875 -4.21875 C 12.46875 -3.351562 12.226562 -2.585938 11.75 -1.921875 C 11.269531 -1.253906 10.59375 -0.734375 9.71875 -0.359375 C 8.84375 0.00390625 7.835938 0.1875 6.703125 0.1875 Z M 6.703125 0.1875 "/></g></g></g><g fill="#737373" fill-opacity="1"><g transform="translate(435.23479, 342.240162)"><g/></g></g><g fill="#737373" fill-opacity="1"><g transform="translate(440.894829, 342.240162)"><g><path d="M 13.84375 -1.65625 C 14.082031 -1.4375 14.203125 -1.1875 14.203125 -0.90625 C 14.203125 -0.625 14.085938 -0.375 13.859375 -0.15625 C 13.640625 0.0625 13.378906 0.171875 13.078125 0.171875 C 12.785156 0.171875 12.53125 0.0664062 12.3125 -0.140625 L 10.5625 -1.828125 C 9.90625 -1.179688 9.171875 -0.6875 8.359375 -0.34375 C 7.554688 0 6.71875 0.171875 5.84375 0.171875 C 4.863281 0.171875 3.992188 0.00390625 3.234375 -0.328125 C 2.472656 -0.671875 1.878906 -1.148438 1.453125 -1.765625 C 1.023438 -2.378906 0.8125 -3.082031 0.8125 -3.875 C 0.8125 -4.769531 1.066406 -5.566406 1.578125 -6.265625 C 2.085938 -6.960938 2.882812 -7.617188 3.96875 -8.234375 C 3.4375 -8.785156 3.039062 -9.316406 2.78125 -9.828125 C 2.519531 -10.347656 2.390625 -10.890625 2.390625 -11.453125 C 2.390625 -12.515625 2.765625 -13.359375 3.515625 -13.984375 C 4.265625 -14.617188 5.238281 -14.9375 6.4375 -14.9375 C 7.550781 -14.9375 8.441406 -14.644531 9.109375 -14.0625 C 9.773438 -13.476562 10.109375 -12.695312 10.109375 -11.71875 C 10.109375 -10.96875 9.882812 -10.296875 9.4375 -9.703125 C 9 -9.109375 8.3125 -8.523438 7.375 -7.953125 L 10.3125 -5.078125 C 10.707031 -5.910156 10.960938 -6.890625 11.078125 -8.015625 C 11.117188 -8.359375 11.25 -8.625 11.46875 -8.8125 C 11.695312 -9 11.945312 -9.09375 12.21875 -9.09375 C 12.53125 -9.09375 12.789062 -8.984375 13 -8.765625 C 13.207031 -8.554688 13.289062 -8.269531 13.25 -7.90625 C 13.113281 -6.28125 12.664062 -4.828125 11.90625 -3.546875 Z M 6.453125 -13.125 C 5.953125 -13.125 5.546875 -12.972656 5.234375 -12.671875 C 4.921875 -12.367188 4.765625 -11.96875 4.765625 -11.46875 C 4.765625 -11.125 4.859375 -10.789062 5.046875 -10.46875 C 5.234375 -10.15625 5.550781 -9.769531 6 -9.3125 C 6.707031 -9.71875 7.210938 -10.09375 7.515625 -10.4375 C 7.816406 -10.789062 7.96875 -11.179688 7.96875 -11.609375 C 7.96875 -12.054688 7.832031 -12.421875 7.5625 -12.703125 C 7.289062 -12.984375 6.921875 -13.125 6.453125 -13.125 Z M 5.96875 -1.859375 C 6.539062 -1.859375 7.09375 -1.976562 7.625 -2.21875 C 8.15625 -2.457031 8.644531 -2.800781 9.09375 -3.25 L 5.390625 -6.859375 C 4.671875 -6.441406 4.15625 -6.003906 3.84375 -5.546875 C 3.53125 -5.085938 3.375 -4.570312 3.375 -4 C 3.375 -3.34375 3.609375 -2.820312 4.078125 -2.4375 C 4.546875 -2.050781 5.175781 -1.859375 5.96875 -1.859375 Z M 5.96875 -1.859375 "/></g></g></g><g fill="#737373" fill-opacity="1"><g transform="translate(455.149751, 342.240162)"><g/></g></g><g fill="#737373" fill-opacity="1"><g transform="translate(460.80979, 342.240162)"><g><path d="M 6.4375 0.109375 C 6.019531 0.109375 5.6875 -0.0078125 5.4375 -0.25 C 5.195312 -0.5 5.078125 -0.828125 5.078125 -1.234375 L 5.078125 -12.5625 L 1.265625 -12.5625 C 0.421875 -12.5625 0 -12.929688 0 -13.671875 C 0 -14.410156 0.421875 -14.78125 1.265625 -14.78125 L 11.59375 -14.78125 C 12.4375 -14.78125 12.859375 -14.410156 12.859375 -13.671875 C 12.859375 -12.929688 12.4375 -12.5625 11.59375 -12.5625 L 7.78125 -12.5625 L 7.78125 -1.234375 C 7.78125 -0.828125 7.65625 -0.5 7.40625 -0.25 C 7.164062 -0.0078125 6.84375 0.109375 6.4375 0.109375 Z M 6.4375 0.109375 "/></g></g></g><g fill="#737373" fill-opacity="1"><g transform="translate(473.639221, 342.240162)"><g><path d="M 8.171875 0.1875 C 6.734375 0.1875 5.488281 -0.117188 4.4375 -0.734375 C 3.382812 -1.347656 2.566406 -2.226562 1.984375 -3.375 C 1.410156 -4.519531 1.125 -5.863281 1.125 -7.40625 C 1.125 -8.9375 1.40625 -10.269531 1.96875 -11.40625 C 2.539062 -12.550781 3.359375 -13.429688 4.421875 -14.046875 C 5.484375 -14.660156 6.734375 -14.96875 8.171875 -14.96875 C 9.617188 -14.96875 10.867188 -14.660156 11.921875 -14.046875 C 12.972656 -13.429688 13.78125 -12.550781 14.34375 -11.40625 C 14.914062 -10.269531 15.203125 -8.9375 15.203125 -7.40625 C 15.203125 -5.863281 14.914062 -4.519531 14.34375 -3.375 C 13.769531 -2.226562 12.953125 -1.347656 11.890625 -0.734375 C 10.835938 -0.117188 9.597656 0.1875 8.171875 0.1875 Z M 8.171875 -1.96875 C 9.535156 -1.96875 10.597656 -2.4375 11.359375 -3.375 C 12.117188 -4.3125 12.5 -5.65625 12.5 -7.40625 C 12.5 -9.144531 12.117188 -10.476562 11.359375 -11.40625 C 10.597656 -12.34375 9.535156 -12.8125 8.171875 -12.8125 C 6.804688 -12.8125 5.742188 -12.34375 4.984375 -11.40625 C 4.222656 -10.476562 3.84375 -9.144531 3.84375 -7.40625 C 3.84375 -5.65625 4.222656 -4.3125 4.984375 -3.375 C 5.742188 -2.4375 6.804688 -1.96875 8.171875 -1.96875 Z M 8.171875 -1.96875 "/></g></g></g><g fill="#737373" fill-opacity="1"><g transform="translate(489.948522, 342.240162)"><g><path d="M 7.703125 0.1875 C 5.671875 0.1875 4.128906 -0.332031 3.078125 -1.375 C 2.035156 -2.425781 1.515625 -3.957031 1.515625 -5.96875 L 1.515625 -13.546875 C 1.515625 -13.953125 1.628906 -14.273438 1.859375 -14.515625 C 2.097656 -14.765625 2.421875 -14.890625 2.828125 -14.890625 C 3.234375 -14.890625 3.554688 -14.765625 3.796875 -14.515625 C 4.035156 -14.273438 4.15625 -13.953125 4.15625 -13.546875 L 4.15625 -5.828125 C 4.15625 -4.554688 4.453125 -3.59375 5.046875 -2.9375 C 5.648438 -2.289062 6.535156 -1.96875 7.703125 -1.96875 C 8.847656 -1.96875 9.71875 -2.296875 10.3125 -2.953125 C 10.914062 -3.609375 11.21875 -4.566406 11.21875 -5.828125 L 11.21875 -13.546875 C 11.21875 -13.953125 11.335938 -14.273438 11.578125 -14.515625 C 11.816406 -14.765625 12.140625 -14.890625 12.546875 -14.890625 C 12.941406 -14.890625 13.257812 -14.765625 13.5 -14.515625 C 13.738281 -14.273438 13.859375 -13.953125 13.859375 -13.546875 L 13.859375 -5.96875 C 13.859375 -3.976562 13.332031 -2.453125 12.28125 -1.390625 C 11.238281 -0.335938 9.710938 0.1875 7.703125 0.1875 Z M 7.703125 0.1875 "/></g></g></g><g fill="#737373" fill-opacity="1"><g transform="translate(505.293517, 342.240162)"><g><path d="M 13.421875 -1.703125 C 13.585938 -1.453125 13.671875 -1.207031 13.671875 -0.96875 C 13.671875 -0.644531 13.539062 -0.378906 13.28125 -0.171875 C 13.019531 0.0351562 12.71875 0.140625 12.375 0.140625 C 12.144531 0.140625 11.925781 0.0859375 11.71875 -0.015625 C 11.519531 -0.117188 11.351562 -0.273438 11.21875 -0.484375 L 8.421875 -4.71875 C 8.148438 -5.164062 7.851562 -5.476562 7.53125 -5.65625 C 7.21875 -5.84375 6.8125 -5.9375 6.3125 -5.9375 L 4.25 -5.9375 L 4.25 -1.234375 C 4.25 -0.816406 4.128906 -0.484375 3.890625 -0.234375 C 3.660156 0.00390625 3.34375 0.125 2.9375 0.125 C 2.53125 0.125 2.203125 0.00390625 1.953125 -0.234375 C 1.710938 -0.484375 1.59375 -0.816406 1.59375 -1.234375 L 1.59375 -13.5 C 1.59375 -13.90625 1.707031 -14.21875 1.9375 -14.4375 C 2.164062 -14.664062 2.484375 -14.78125 2.890625 -14.78125 L 8.140625 -14.78125 C 9.816406 -14.78125 11.085938 -14.40625 11.953125 -13.65625 C 12.828125 -12.914062 13.265625 -11.835938 13.265625 -10.421875 C 13.265625 -9.273438 12.941406 -8.332031 12.296875 -7.59375 C 11.648438 -6.863281 10.734375 -6.394531 9.546875 -6.1875 C 9.953125 -6.082031 10.304688 -5.90625 10.609375 -5.65625 C 10.921875 -5.40625 11.222656 -5.054688 11.515625 -4.609375 Z M 7.765625 -8.015625 C 8.785156 -8.015625 9.53125 -8.203125 10 -8.578125 C 10.476562 -8.960938 10.71875 -9.554688 10.71875 -10.359375 C 10.71875 -11.171875 10.476562 -11.757812 10 -12.125 C 9.53125 -12.5 8.785156 -12.6875 7.765625 -12.6875 L 4.234375 -12.6875 L 4.234375 -8.015625 Z M 7.765625 -8.015625 "/></g></g></g><g fill="#737373" fill-opacity="1"><g transform="translate(519.84192, 342.240162)"><g><path d="M 2.9375 0.125 C 2.53125 0.125 2.203125 0 1.953125 -0.25 C 1.710938 -0.5 1.59375 -0.828125 1.59375 -1.234375 L 1.59375 -13.546875 C 1.59375 -13.953125 1.710938 -14.273438 1.953125 -14.515625 C 2.203125 -14.765625 2.53125 -14.890625 2.9375 -14.890625 C 3.351562 -14.890625 3.679688 -14.765625 3.921875 -14.515625 C 4.171875 -14.273438 4.296875 -13.953125 4.296875 -13.546875 L 4.296875 -1.234375 C 4.296875 -0.828125 4.171875 -0.5 3.921875 -0.25 C 3.679688 0 3.351562 0.125 2.9375 0.125 Z M 2.9375 0.125 "/></g></g></g><g fill="#737373" fill-opacity="1"><g transform="translate(525.711588, 342.240162)"><g><path d="M 6.703125 0.1875 C 5.628906 0.1875 4.613281 0.046875 3.65625 -0.234375 C 2.695312 -0.523438 1.921875 -0.914062 1.328125 -1.40625 C 1.003906 -1.644531 0.84375 -1.976562 0.84375 -2.40625 C 0.84375 -2.707031 0.925781 -2.960938 1.09375 -3.171875 C 1.269531 -3.390625 1.476562 -3.5 1.71875 -3.5 C 1.96875 -3.5 2.253906 -3.398438 2.578125 -3.203125 C 3.179688 -2.773438 3.8125 -2.460938 4.46875 -2.265625 C 5.125 -2.066406 5.847656 -1.96875 6.640625 -1.96875 C 7.660156 -1.96875 8.441406 -2.144531 8.984375 -2.5 C 9.535156 -2.863281 9.8125 -3.382812 9.8125 -4.0625 C 9.8125 -4.59375 9.554688 -5 9.046875 -5.28125 C 8.535156 -5.570312 7.6875 -5.851562 6.5 -6.125 C 5.269531 -6.382812 4.269531 -6.6875 3.5 -7.03125 C 2.726562 -7.382812 2.144531 -7.832031 1.75 -8.375 C 1.363281 -8.925781 1.171875 -9.625 1.171875 -10.46875 C 1.171875 -11.332031 1.414062 -12.101562 1.90625 -12.78125 C 2.394531 -13.46875 3.078125 -14.003906 3.953125 -14.390625 C 4.828125 -14.773438 5.8125 -14.96875 6.90625 -14.96875 C 8.894531 -14.96875 10.519531 -14.4375 11.78125 -13.375 C 11.96875 -13.21875 12.097656 -13.066406 12.171875 -12.921875 C 12.242188 -12.773438 12.28125 -12.59375 12.28125 -12.375 C 12.28125 -12.082031 12.191406 -11.828125 12.015625 -11.609375 C 11.847656 -11.390625 11.644531 -11.28125 11.40625 -11.28125 C 11.269531 -11.28125 11.140625 -11.300781 11.015625 -11.34375 C 10.898438 -11.382812 10.742188 -11.460938 10.546875 -11.578125 C 9.972656 -11.992188 9.414062 -12.300781 8.875 -12.5 C 8.34375 -12.707031 7.6875 -12.8125 6.90625 -12.8125 C 5.945312 -12.8125 5.191406 -12.617188 4.640625 -12.234375 C 4.085938 -11.847656 3.8125 -11.3125 3.8125 -10.625 C 3.8125 -10.050781 4.054688 -9.609375 4.546875 -9.296875 C 5.035156 -8.992188 5.867188 -8.710938 7.046875 -8.453125 C 8.285156 -8.171875 9.289062 -7.859375 10.0625 -7.515625 C 10.84375 -7.171875 11.4375 -6.734375 11.84375 -6.203125 C 12.257812 -5.671875 12.46875 -5.007812 12.46875 -4.21875 C 12.46875 -3.351562 12.226562 -2.585938 11.75 -1.921875 C 11.269531 -1.253906 10.59375 -0.734375 9.71875 -0.359375 C 8.84375 0.00390625 7.835938 0.1875 6.703125 0.1875 Z M 6.703125 0.1875 "/></g></g></g><g fill="#737373" fill-opacity="1"><g transform="translate(539.065081, 342.240162)"><g><path d="M 14.71875 -14.890625 C 15.113281 -14.890625 15.425781 -14.765625 15.65625 -14.515625 C 15.894531 -14.273438 16.015625 -13.953125 16.015625 -13.546875 L 16.015625 -1.125 C 16.015625 -0.738281 15.898438 -0.429688 15.671875 -0.203125 C 15.453125 0.015625 15.160156 0.125 14.796875 0.125 C 14.441406 0.125 14.15625 0.015625 13.9375 -0.203125 C 13.726562 -0.429688 13.625 -0.738281 13.625 -1.125 L 13.625 -9.765625 L 10.0625 -3.015625 C 9.894531 -2.710938 9.710938 -2.488281 9.515625 -2.34375 C 9.316406 -2.195312 9.085938 -2.125 8.828125 -2.125 C 8.554688 -2.125 8.320312 -2.191406 8.125 -2.328125 C 7.9375 -2.460938 7.757812 -2.691406 7.59375 -3.015625 L 4 -9.671875 L 4 -1.125 C 4 -0.75 3.890625 -0.445312 3.671875 -0.21875 C 3.460938 0.0078125 3.175781 0.125 2.8125 0.125 C 2.445312 0.125 2.160156 0.015625 1.953125 -0.203125 C 1.742188 -0.429688 1.640625 -0.738281 1.640625 -1.125 L 1.640625 -13.546875 C 1.640625 -13.953125 1.753906 -14.273438 1.984375 -14.515625 C 2.210938 -14.765625 2.523438 -14.890625 2.921875 -14.890625 C 3.460938 -14.890625 3.882812 -14.585938 4.1875 -13.984375 L 8.84375 -5.109375 L 13.484375 -13.984375 C 13.785156 -14.585938 14.195312 -14.890625 14.71875 -14.890625 Z M 14.71875 -14.890625 "/></g></g></g><g fill="#737373" fill-opacity="1"><g transform="translate(556.685553, 342.240162)"><g/></g></g><g clip-path="url(#dfb51d3be1)"><g clip-path="url(#edc27a8dbf)"><g clip-path="url(#01a594f689)"><g clip-path="url(#501792f4cc)"><g clip-path="url(#99d01ff1ba)"><path fill="url(#3b3b495a6f)" d="M 520.792969 478.691406 L 408.945312 380.421875 L 520.085938 253.925781 L 631.933594 352.195312 Z M 520.792969 478.691406 " fill-rule="nonzero"/></g></g></g></g></g><g clip-path="url(#83dde21347)"><g clip-path="url(#4d47c9aeab)"><g clip-path="url(#b06ffe61df)"><g clip-path="url(#5867200a8c)"><g clip-path="url(#ce170d5ada)"><path fill="url(#44648f508e)" d="M 332.253906 654.828125 L -6.140625 357.511719 L 276.277344 36.074219 L 614.671875 333.390625 Z M 332.253906 654.828125 " fill-rule="nonzero"/></g></g></g></g></g><g clip-path="url(#5e99036351)"><path fill="#8ebece" d="M 273.683594 226.40625 C 265.929688 197.859375 242.476562 180.816406 210.945312 180.816406 L 132.863281 180.816406 L 134.402344 184.347656 C 141.019531 199.515625 155.992188 209.320312 172.546875 209.324219 L 193.808594 209.324219 L 193.984375 209.320312 C 194.789062 209.261719 197.777344 209.082031 202.253906 209.082031 C 206.5625 209.082031 210.953125 209.25 215.285156 209.582031 L 215.710938 209.613281 C 232.296875 210.921875 255.023438 215.257812 269.070312 228.480469 L 269.25 228.648438 C 269.324219 228.71875 269.398438 228.785156 269.46875 228.855469 L 276.152344 235.511719 Z M 275.820312 259.308594 L 275.804688 259.582031 C 271.585938 295.152344 246.464844 317.246094 210.25 317.246094 L 160.433594 317.246094 L 160.433594 249.902344 L 162.957031 249.902344 C 177.539062 249.902344 189.402344 261.769531 189.402344 276.351562 L 189.402344 288.273438 L 211.464844 288.273438 C 222.332031 288.273438 231.480469 284.707031 237.929688 277.953125 C 244.492188 271.082031 247.957031 261.152344 247.957031 249.234375 L 247.957031 248.824219 C 247.957031 239.597656 245.929688 231.644531 241.925781 225.175781 L 238.191406 219.136719 L 244.898438 221.464844 C 253.21875 224.351562 259.972656 228.199219 264.960938 232.902344 C 272.253906 239.769531 275.90625 248.652344 275.820312 259.308594 " fill-opacity="1" fill-rule="nonzero"/></g></svg>